<!-- google-logo.svg -->
<svg xmlns="http://www.w3.org/2000/svg" viewBox="0 0 48 48" width="24" height="24">
  <path fill="#4285F4" d="M24 9.5c3.3 0 6.2 1.1 8.5 3.2l6.3-6.3C34.3 2.6 29.5 0 24 0 14.6 0 6.5 6.4 2.8 15.2l7.3 5.7C12 14.2 17.5 9.5 24 9.5z"/>
  <path fill="#34A853" d="M46.1 24.6c0-1.4-.1-2.7-.4-4H24v7.6h12.5c-.6 3.1-2.4 5.7-5 7.5v6h8.1c4.8-4.4 7.5-10.9 7.5-17.1z"/>
  <path fill="#FBBC05" d="M10.1 28.1c-1.1-3.2-1.1-6.8 0-10L2.8 12.4c-3.2 6.4-3.2 13.9 0 20.3l7.3-5.7z"/>
  <path fill="#EA4335" d="M24 48c5.5 0 10.3-1.8 13.7-4.9l-8.1-6c-2.4 1.6-5.4 2.5-8.6 2.5-6.5 0-12-4.7-13.9-11l-7.3 5.7C6.5 41.6 14.6 48 24 48z"/>
</svg>
